<svg width="333" height="369" fill="none" xmlns="http://www.w3.org/2000/svg"><path d="M324.349 172.086c-22.406 34.907-70.204 142.622-58.449 182.665H94.42s-24.787-19.169-48.854-52.51a270.383 270.383 0 0 1-12.897-19.549 244.833 244.833 0 0 1-12.475-23.577C9.034 234.969 1.07 206.983.744 176.055-.4 69.029 88.757-30.477 210.05 9.677 331.345 49.83 346.737 137.228 324.349 172.086Z" fill="#EAF9F8"/><path d="M217.048 356.018a1.134 1.134 0 0 1-.506-.123 1.194 1.194 0 0 1-.406-.336l-91.459-118.176a1.263 1.263 0 0 1 .182-1.726c.244-.204.557-.298.868-.262.311.035.596.198.792.452l91.45 118.176a1.268 1.268 0 0 1 .136 1.317 1.205 1.205 0 0 1-.452.506c-.194.12-.418.18-.643.172h.038Z" fill="#E03C03"/><path d="M75.189 356.018a1.17 1.17 0 0 1-.739-.269 1.262 1.262 0 0 1-.173-1.726l91.45-118.176a1.21 1.21 0 0 1 .35-.345 1.148 1.148 0 0 1 .933-.14 1.182 1.182 0 0 1 .734.615 1.263 1.263 0 0 1-.184 1.406L76.11 355.559a1.15 1.15 0 0 1-.921.459Z" fill="#FF6224"/><path d="M166.638 356.018a1.175 1.175 0 0 1-.911-.459l-91.45-118.176a1.242 1.242 0 0 1-.315-.924 1.27 1.27 0 0 1 .131-.482 1.183 1.183 0 0 1 .734-.615 1.148 1.148 0 0 1 .933.14c.138.089.257.206.35.345l91.449 118.176a1.26 1.26 0 0 1-.182 1.726c-.209.176-.47.271-.739.269Z" fill="#FF6224"/><path d="M91.398 239.746H48.907a2.962 2.962 0 0 1-2.128-.92 3.205 3.205 0 0 1-.885-2.211c0-.832.317-1.629.882-2.218a2.968 2.968 0 0 1 2.13-.924h42.492c.396 0 .789.081 1.155.239.366.158.699.39.979.682.28.292.502.638.652 1.019.151.381.228.79.227 1.202 0 .83-.317 1.627-.883 2.214a2.957 2.957 0 0 1-2.13.917Z" fill="#E03C03"/><path d="M213.64 239.746H92.203a2.964 2.964 0 0 1-2.118-.909 3.205 3.205 0 0 1-.895-2.193c0-.831.317-1.629.881-2.217a2.964 2.964 0 0 1 2.132-.924H213.64v6.243Z" fill="#FF6224"/><path d="M124.215 295.698a3.533 3.533 0 0 1-.551 1.909 3.339 3.339 0 0 1-1.48 1.268 3.189 3.189 0 0 1-1.908.199 3.26 3.26 0 0 1-1.692-.936 3.482 3.482 0 0 1-.907-1.757 3.556 3.556 0 0 1 .187-1.984 3.4 3.4 0 0 1 1.215-1.541 3.217 3.217 0 0 1 1.835-.579c.874 0 1.712.36 2.331 1.001a3.5 3.5 0 0 1 .97 2.42Z" fill="#E03C03"/><path d="M174.623 295.698a3.543 3.543 0 0 1-.552 1.909 3.339 3.339 0 0 1-1.48 1.268 3.189 3.189 0 0 1-1.908.199 3.26 3.26 0 0 1-1.692-.936 3.473 3.473 0 0 1-.906-1.757 3.546 3.546 0 0 1 .186-1.984 3.403 3.403 0 0 1 1.216-1.541 3.215 3.215 0 0 1 1.835-.579c.873 0 1.712.36 2.33 1.001.619.642.968 1.512.971 2.42Z" fill="#FFC947"/><path d="M130.741 98.76H87.943c-2.114 0-3.829 1.782-3.829 3.98v33.082c0 2.198 1.715 3.979 3.83 3.979h42.797c2.115 0 3.829-1.781 3.829-3.979V102.74c0-2.198-1.714-3.98-3.829-3.98Z" fill="#20C3C5"/><path d="M120.29 116.882h-1.583a9.734 9.734 0 0 0-1.065-2.523l1.218-1.277a1.24 1.24 0 0 0 .352-.877 1.25 1.25 0 0 0-.352-.878l-1.717-1.785a1.167 1.167 0 0 0-.845-.366 1.162 1.162 0 0 0-.844.366l-1.296 1.346a9.062 9.062 0 0 0-2.303-.997v-1.995c0-.329-.125-.644-.348-.878a1.18 1.18 0 0 0-.842-.369h-2.437a1.18 1.18 0 0 0-.842.369 1.272 1.272 0 0 0-.348.878v2.085a9.024 9.024 0 0 0-2.236.927l-1.42-1.486a1.176 1.176 0 0 0-.844-.365 1.176 1.176 0 0 0-.845.365l-1.727 1.785c-.22.235-.344.55-.344.878 0 .328.123.643.344.878l1.324 1.376a10.177 10.177 0 0 0-1.036 2.364h-1.862c-.316.002-.62.135-.842.368-.223.234-.348.55-.348.878v2.524c0 .328.126.642.349.874.223.232.525.362.841.362h1.641c.179.926.486 1.819.912 2.653l-1.114 1.157c-.22.235-.343.55-.343.878 0 .328.123.643.343.878l1.728 1.785c.226.229.529.357.844.357.316 0 .619-.128.845-.357l.959-.997a9.079 9.079 0 0 0 2.639 1.236v1.407c-.001.162.029.324.088.474a1.22 1.22 0 0 0 .645.671c.145.062.3.093.457.091h2.428a1.166 1.166 0 0 0 .847-.358 1.244 1.244 0 0 0 .352-.878v-1.307a9.485 9.485 0 0 0 2.726-1.147l.959.997c.226.23.529.358.845.358.315 0 .618-.128.844-.358l1.718-1.785c.111-.115.2-.251.26-.402a1.286 1.286 0 0 0 0-.951 1.247 1.247 0 0 0-.26-.402l-.96-.997c.478-.856.83-1.78 1.046-2.743h1.478c.318 0 .623-.132.848-.365.225-.234.351-.551.351-.882v-2.523a1.28 1.28 0 0 0-.336-.938 1.187 1.187 0 0 0-.892-.379Zm-9.644 8.976a5.917 5.917 0 0 1-3.823-.48 6.238 6.238 0 0 1-2.793-2.755 6.59 6.59 0 0 1-.663-3.943 6.467 6.467 0 0 1 1.731-3.575 6.042 6.042 0 0 1 3.44-1.798 5.928 5.928 0 0 1 3.793.688 6.279 6.279 0 0 1 2.651 2.903 6.596 6.596 0 0 1 .462 3.974 6.464 6.464 0 0 1-1.671 3.256 6.071 6.071 0 0 1-3.127 1.75v-.02Z" fill="#fff"/><path d="M195.188 76.09h-42.799c-2.114 0-3.828 1.782-3.828 3.98v33.082c0 2.198 1.714 3.979 3.828 3.979h42.799c2.114 0 3.828-1.781 3.828-3.979V80.07c0-2.198-1.714-3.98-3.828-3.98Z" fill="#FF6224"/><path d="M165.287 103.508a1.107 1.107 0 0 1-.835-.379l-5.316-5.915a1.405 1.405 0 0 1-.346-.927c0-.344.123-.674.346-.928l5.412-5.984a1.09 1.09 0 0 1 1.66 0c.223.254.346.584.346.928 0 .343-.123.674-.346.927l-4.577 5.087 4.491 4.986c.222.254.346.585.346.928 0 .343-.124.674-.346.928a1.085 1.085 0 0 1-.835.349ZM182.309 103.508a1.09 1.09 0 0 1-.835-.379 1.412 1.412 0 0 1 0-1.855l4.482-4.987-4.568-5.087a1.405 1.405 0 0 1-.346-.927c0-.343.123-.674.346-.928a1.12 1.12 0 0 1 .376-.281 1.088 1.088 0 0 1 1.284.281l5.412 5.984c.223.254.346.585.346.928 0 .343-.123.674-.346.927l-5.326 5.915a1.068 1.068 0 0 1-.825.409ZM171.15 105.133c-.152 0-.302-.03-.442-.089a1.338 1.338 0 0 1-.65-.725 1.404 1.404 0 0 1-.002-.991l5.278-14.422a1.181 1.181 0 0 1 .617-.705 1.117 1.117 0 0 1 .918-.013c.296.146.528.403.649.72.121.316.122.668.003.986l-5.277 14.422a1.248 1.248 0 0 1-.426.583 1.164 1.164 0 0 1-.668.234ZM129.215 119.954h103.023c.422 0 .827.175 1.126.485.299.311.467.732.467 1.171v3.391H127.622v-3.391c0-.439.168-.86.467-1.171.298-.31.704-.485 1.126-.485Z" fill="#fff"/><path d="M127.622 125.021h106.209v55.772c0 .817-.313 1.601-.869 2.179a2.909 2.909 0 0 1-2.096.903H130.587c-.786 0-1.54-.325-2.096-.903a3.141 3.141 0 0 1-.869-2.179v-55.772Z" fill="#383873"/><path d="M228.734 122.497a.804.804 0 0 1-.126.433.752.752 0 0 1-.336.286.72.72 0 0 1-.432.044.742.742 0 0 1-.383-.212.81.81 0 0 1-.163-.848.774.774 0 0 1 .276-.349.726.726 0 0 1 .945.096c.14.146.219.344.219.55ZM223.601 122.497a.796.796 0 0 1-.126.433.752.752 0 0 1-.336.286.72.72 0 0 1-.432.044.742.742 0 0 1-.383-.212.81.81 0 0 1-.163-.848.774.774 0 0 1 .276-.349.726.726 0 0 1 .945.096.791.791 0 0 1 .219.55ZM218.467 122.497a.804.804 0 0 1-.126.433.763.763 0 0 1-.336.286.723.723 0 0 1-.433.044.745.745 0 0 1-.383-.212.8.8 0 0 1 .113-1.197.726.726 0 0 1 .945.096c.141.146.22.344.22.55Z" fill="#FF6224"/><path d="M192.154 132.97h-59.025a1.01 1.01 0 0 1-.726-.313c-.192-.2-.3-.472-.3-.755 0-.283.108-.554.3-.754.193-.2.454-.313.726-.313h59.025c.264.018.511.141.69.344.179.202.275.469.27.743a1.088 1.088 0 0 1-.283.719 1.013 1.013 0 0 1-.677.329ZM192.154 139.762h-59.025a1.01 1.01 0 0 1-.726-.313c-.192-.2-.3-.472-.3-.755 0-.283.108-.554.3-.754.193-.2.454-.313.726-.313h59.025c.273 0 .534.113.726.313.193.2.301.471.301.754 0 .283-.108.555-.301.755-.192.2-.453.313-.726.313ZM163.971 146.554h-30.842a1.01 1.01 0 0 1-.726-.313c-.192-.2-.3-.472-.3-.755 0-.283.108-.554.3-.754.193-.2.454-.313.726-.313h30.842c.272 0 .533.113.726.313a1.092 1.092 0 0 1 0 1.509 1.01 1.01 0 0 1-.726.313Z" fill="#20C3C5"/><path d="M192.154 160.127h-59.025c-.272 0-.533-.112-.726-.312-.192-.2-.3-.472-.3-.755 0-.283.108-.554.3-.755.193-.2.454-.312.726-.312h59.025c.273 0 .534.112.726.312.193.201.301.472.301.755 0 .283-.108.555-.301.755-.192.2-.453.312-.726.312ZM163.971 166.919h-30.842c-.272 0-.533-.112-.726-.312-.192-.2-.3-.472-.3-.755 0-.283.108-.554.3-.754.193-.2.454-.313.726-.313h30.842c.269 0 .527.11.719.306a1.086 1.086 0 0 1 .235 1.156 1.07 1.07 0 0 1-.221.353 1.02 1.02 0 0 1-.733.319Z" fill="#FF6224"/><path d="M163.971 173.711h-30.842c-.272 0-.533-.112-.726-.312-.192-.2-.3-.472-.3-.755 0-.283.108-.554.3-.754.193-.2.454-.313.726-.313h30.842c.272 0 .533.113.726.313a1.092 1.092 0 0 1 0 1.509c-.193.2-.454.312-.726.312Z" fill="#20C3C5"/><path d="M192.155 146.554h-22.166c-.273 0-.534-.113-.726-.313a1.088 1.088 0 0 1-.301-.755c0-.283.108-.554.301-.754.192-.2.453-.313.726-.313h22.166c.261.018.505.138.683.336.179.199.278.46.277.731.001.272-.098.533-.277.731a1.009 1.009 0 0 1-.683.337Z" fill="#fff"/><path d="m221.375 131.304-15.671 16.287a1.005 1.005 0 0 1-.724.315.989.989 0 0 1-.725-.315 1.07 1.07 0 0 1-.303-.753 1.093 1.093 0 0 1 .303-.753l15.671-16.287a1.005 1.005 0 0 1 .724-.315.989.989 0 0 1 .725.315 1.093 1.093 0 0 1 0 1.506ZM221.821 164.341c1.178-5.161-1.893-10.338-6.859-11.562-4.966-1.223-9.946 1.968-11.124 7.13-1.177 5.161 1.894 10.337 6.86 11.561 4.966 1.224 9.946-1.968 11.123-7.129Z" fill="#FF6224"/><path d="M211.606 168.824a5.593 5.593 0 0 1-.881 3.02 5.28 5.28 0 0 1-2.347 2.002 5.05 5.05 0 0 1-3.022.31 5.18 5.18 0 0 1-2.678-1.488 5.51 5.51 0 0 1-1.431-2.783 5.634 5.634 0 0 1 .298-3.141 5.389 5.389 0 0 1 1.926-2.439 5.091 5.091 0 0 1 2.905-.916c1.387 0 2.718.573 3.698 1.592a5.544 5.544 0 0 1 1.532 3.843Z" fill="#20C3C5"/><path d="M127.622 177.91v19.419l17.177-17.843" fill="#383873"/><path d="M109.341 202.585h37.683l13.617 27.248h-37.674l-13.626-27.248Z" fill="#86BFBC"/><path d="m123.736 227.818-11.285-22.56a.73.73 0 0 1 .045-.667.692.692 0 0 1 .24-.238.648.648 0 0 1 .32-.092h32.626a.646.646 0 0 1 .354.1.684.684 0 0 1 .251.279l11.285 22.57a.747.747 0 0 1-.052.662.7.7 0 0 1-.237.238.66.66 0 0 1-.316.097h-32.626a.655.655 0 0 1-.356-.105.686.686 0 0 1-.249-.284Z" fill="#fff"/><path d="M153.483 229.833h-30.515v3.64h30.515v-3.64Z" fill="#B8E3E2"/><path d="M179.68 229.833h-30.093a1.718 1.718 0 0 0-1.238.535 1.82 1.82 0 0 0-.378.592 1.884 1.884 0 0 0-.13.698c-.001.238.043.475.13.696.088.221.216.421.379.59a1.716 1.716 0 0 0 1.237.529h30.093a1.71 1.71 0 0 0 1.238-.529c.163-.169.291-.369.379-.59.087-.221.131-.458.13-.696a1.884 1.884 0 0 0-.13-.698 1.82 1.82 0 0 0-.378-.592 1.739 1.739 0 0 0-.568-.396 1.687 1.687 0 0 0-.671-.139Z" fill="#9FCCC9"/><path d="m122.968 229.833-13.626-27.248-.682.529a1.173 1.173 0 0 0-.419.677c-.058.27-.022.554.103.799l14.624 28.923v-3.68Z" fill="#B8E3E2"/><path d="M136.501 231.081h-3.358v.609h3.358v-.609ZM140.912 231.538h-3.358v.608h3.358v-.608ZM145.135 231.538h-3.359v.608h3.359v-.608Z" fill="#9FCCC9"/><path d="M191.655 283.181s-31.244 25.293-36.206 31.716c-1.871 2.434-5.124 6.692-8.502 11.061-5.546 7.171-11.429 14.651-12.129 14.83-1.113.29-10.498-7.131-10.776-8.726-.173-.998 8.367-16.227 15.756-28.475 4.501-7.44 8.57-13.793 9.999-15.17 3.772-3.64 27.023-16.436 27.023-16.436l14.835 11.2Z" fill="#383873"/><path d="M132.018 335.383s29.2-43.196 43.853-50.466" stroke="#000" stroke-width=".82" stroke-miterlimit="10" stroke-linecap="round" style="mix-blend-mode:overlay" opacity=".15"/><path d="M224.235 172.275c-.336.788-.71 1.596-1.133 2.434-2.293 4.538-.604 9.086-3.205 10.243-.17.074-.347.131-.527.169-3.359.778-11.103-3.869-11.448-6.203-.346-2.334 2.389-6.303 0-6.792-2.39-.489-3.676 3.69-3.676 3.69-1.919.219-2.658-3.201-5.882-3.201a4.976 4.976 0 0 0-1.334.179 9.372 9.372 0 0 0-3.694 2.114 9.336 9.336 0 0 0-.96.998 6.599 6.599 0 0 1-2.043-2.446 6.883 6.883 0 0 1-.692-3.159c.23-5.885 2.322-10.173 7.36-11.051.557-6.543 5.758-10.043 12.667-10.263 6.065-.189 6.976 5.476 7.12 6.892a16.307 16.307 0 0 0-1.785-6.892c3.042-.139 5.758 2.115 5.019 9.465.701-2.184 3.157-3.57 5.038-1.995-1.746 0-3.426 3.052-3.426 3.052a11.997 11.997 0 0 1 3.445 3.88c1.142 2.094.662 5.176-.844 8.886Z" fill="#382424"/><path d="m219.898 184.951-.077 1.078-.269 3.82s-5.594 4.986-8.771 0l-.067-.1c-.959-1.516-1.871-1.995-2.677-2.145-1.756-.219-3.167 1.556-4.625-.369a37.642 37.642 0 0 1-6.382-14.421c.436-.12.884-.18 1.334-.18 3.224 0 3.925 3.421 5.882 3.202 0 0 1.296-4.169 3.676-3.691 2.38.479-.336 4.469 0 6.792.153.998 1.775 2.544 3.838 3.82 2.39 1.486 5.374 2.673 7.274 2.444l.336-.06c.181-.045.358-.109.528-.19Z" fill="#FFAD94"/><path d="M220.77 192.063c-2.524 1.785-7.14 2.084-7.14 2.084l-3.78-.578s-1.584-2.384-.845-3.72c.268-.397.592-.75.96-1.047a27.18 27.18 0 0 1 4.337-2.883 13.558 13.558 0 0 1 4.798-1.765c3.253-.19 4.184 6.114 1.67 7.909Z" fill="#000" style="mix-blend-mode:overlay" opacity=".25"/><path d="M219.985 255.734c-5.624 1.127-17.523-2.314-23.223-4.987a8.213 8.213 0 0 1-3.099-1.995c-1.094-1.994 0-3.54 2.715-9.893.307-.718.634-1.486.96-2.334 1.833-4.498 1.842-14.083 1.833-22.361 0-7.071-.048-13.175 1.036-14.262 2.342-2.354 14.058-10.053 14.058-10.053l2.342 12.636s1.314 6.423 2.706 14.791c2.591 15.379 5.47 37.51.672 38.458Z" fill="#20C3C5"/><path d="M223.937 261.359c0 .579-5.595 14.153-10.297 16.097-4.702 1.945-33-.199-33-.199l-14.001 9.515 2.936 28.664 2.044 19.947.058.648c-4.28 2.902-15.066 3.68-16.227 1.177-1.123-2.523-18.29-56.261-11.563-65.566 6.727-9.305 49.822-22.889 49.822-22.889a24.064 24.064 0 0 0 3.839 1.994 71.283 71.283 0 0 0 15.517 4.069c1.775.29 3.339.499 4.538.649 1.507.189 2.419.259 2.419.259s3.915 5.047 3.915 5.635Z" fill="#383873"/><path d="M173.453 354.751h-36.398a2.289 2.289 0 0 1 .064-1.078 2.23 2.23 0 0 1 .55-.916c1.478-1.845 5.172-3.701 8.742-5.306 3.387-1.516 6.64-2.823 7.677-3.72 2.572-2.115 1.382-6.224 1.314-6.483.394.848 1.92 1.316 3.839 1.456 3.838.289 9.596-.708 12.388-2.633l-.057-.648c1.074 2.154 1.593 12.806 1.765 17.334.096 1.216.116 1.994.116 1.994Z" fill="#0C2059"/><path d="M159.289 338.674c-.106 1.805-.355 4.727-.864 5.505-.739 1.167-8.77 5.246-9.884 4.857a6.8 6.8 0 0 1-2.13-1.615c3.388-1.516 6.641-2.823 7.677-3.72 2.572-2.115 1.382-6.224 1.315-6.483.441.848 1.928 1.316 3.886 1.456ZM173.453 354.751h-36.398a2.288 2.288 0 0 1 .064-1.078 2.24 2.24 0 0 1 .55-.917h35.716c.048 1.217.068 1.995.068 1.995Z" fill="#2E4780"/><path d="M134.819 340.788a88.778 88.778 0 0 1-5.163 11.55c-.96 1.605-1.852 2.643-2.485 2.383-2.246-.867-24.739-20.745-22.58-22.201.445-.25.935-.4 1.44-.439a41.764 41.764 0 0 1 8.204.339c2.572.28 4.971.579 6.218.579 3.177 0 3.589-.997 3.589-.997a6.042 6.042 0 0 0 1.555 1.994c2.783 2.803 8.377 7.012 9.222 6.792Z" fill="#0C2059"/><path d="M125.597 334.056a10.11 10.11 0 0 1-5.286 1.825 10.06 10.06 0 0 1-5.433-1.276 2.28 2.28 0 0 1-.599-.988 2.342 2.342 0 0 1-.044-1.167c2.572.28 4.971.579 6.219.579 3.176 0 3.589-.997 3.589-.997a6.041 6.041 0 0 0 1.554 2.024ZM129.656 352.338c-.96 1.605-1.852 2.643-2.485 2.383-2.246-.867-24.739-20.745-22.58-22.201.445-.25.935-.4 1.44-.439l23.625 20.257Z" fill="#2E4780"/><path d="M196.817 230.98c-1.756 2.543-4.913 6.432-7.504 6.034l-.316-.05c-4.952-.908-34.047-8.498-35.429-8.777-1.382-.279-11.189-.389-10.632-1.456.556-1.067 6.161-4.458 7.677-4.379 1.516.08 7.379 1.856 13.252 1.666 5.873-.189 21.274 0 21.274 0l.749-1.346 1.103-1.995c-.336 5.994 6.535 10.781 9.826 10.303Z" fill="#FFAD94"/><path d="M196.819 253.061s-1.344 7.42 3.886 9.894M194.074 259.025s-34.545 15.33-36.225 20.077c-1.679 4.747 8.79 56.281 8.79 56.281" stroke="#000" stroke-width=".82" stroke-miterlimit="10" stroke-linecap="round" style="mix-blend-mode:overlay" opacity=".15"/><path d="M223.938 261.359c0 .578-5.594 14.152-10.296 16.097-4.702 1.945-33.001-.199-33.001-.199l-14 9.515 2.936 28.664s-5.921-32.724-5.921-34.908c0-1.825 39.104-13.504 49.41-25.732 4.03.669 6.957.908 6.957.908s3.915 5.067 3.915 5.655Z" fill="#000" style="mix-blend-mode:overlay" opacity=".15"/><path d="M205.502 226.671c-2.427 3.581-6.333 8.119-9.087 12.228.307-.718.633-1.486.96-2.334 1.832-4.498 1.842-14.083 1.832-22.361l8.387-5.755s1.833 12.418-2.092 18.222Z" fill="#000" style="mix-blend-mode:overlay" opacity=".25"/><path d="M198.355 229.872c-.365.35-.73.689-1.104.998-.14.049-.285.083-.432.1-3.291.478-10.162-4.359-9.855-10.283.19-.873.514-1.708.96-2.474 2.811-5.894 11.265-19.009 12.82-18.401 0 0 5.441.868 6.919 8.587 1.334 7.301-3.656 16.028-9.308 21.473Z" fill="#169799"/><path d="M217.604 255.475c-1.2-.15-2.764-.359-4.539-.649a71.283 71.283 0 0 1-15.517-4.069c4.222-.159 13.271-2.992 14.394-24.555a110.623 110.623 0 0 0 2.284 12.437 177.696 177.696 0 0 1 3.378 16.836ZM215.368 184.523c-.368.443-.711.91-1.026 1.396a27.207 27.207 0 0 0-4.338 2.852 3.112 3.112 0 0 0-1.967-1.196l3.723-4.867a20.05 20.05 0 0 0 3.608 1.815ZM196.819 230.98c-1.756 2.543-4.913 6.432-7.504 6.034l-.317-.05c-3.205-4.818-3.32-11.131-3.138-14.292l1.104-1.995c-.307 5.994 6.563 10.781 9.855 10.303Z" fill="#000" style="mix-blend-mode:overlay" opacity=".25"/><path d="M224.234 172.275c-.336.788-.71 1.596-1.132 2.434a16.835 16.835 0 0 0-1.468 6.283c-.37-.293-.755-.566-1.152-.818a20.574 20.574 0 0 0-5.114 4.349c-3.417-1.277-7.197-3.99-7.437-5.615-.336-2.324 2.389-6.304 0-6.792-2.39-.489-3.676 3.69-3.676 3.69-1.919.219-2.658-3.202-5.882-3.202-.45 0-.899.06-1.334.18a9.372 9.372 0 0 0-3.694 2.114s3.637-5.306 9.327-4.229c0 0-.835-1.655-4.664-1.456 8.023-2.722 13.157-1.645 15.632 1.357 2.006 2.463 6.737 5.505 10.594 1.705Z" fill="#000" style="mix-blend-mode:overlay" opacity=".25"/><path d="M240.548 286.771h-28.001s22.215-6.792 22.215-52.57v-1.746c-.221-30.598-6.516-47.474-14.27-52.281a33.09 33.09 0 0 1 9.923-3.909 51.094 51.094 0 0 1 6.179-.998c19.192-1.995 34.489 5.785 36.312 14.621 1.823 8.837-9.404 96.883-32.358 96.883Z" fill="#B8E3E2"/><path d="M234.761 234.201c0 45.778-22.215 52.57-22.215 52.57h-45.907l1.919-1.416 12.091-8.098 24.249-1.716c1.305-5.625 4.856-5.804 10.268-6.393 3.147-.339 3.454-5.864 2.495-13.175a172.948 172.948 0 0 0-3.436-17.334 110.914 110.914 0 0 1-2.284-12.467 115.507 115.507 0 0 1-.873-13.444 118.55 118.55 0 0 1 2.198-23.827c.115-.578.23-1.137.345-1.666v-.049a11.992 11.992 0 0 1 1.718-2.653 20.56 20.56 0 0 1 5.115-4.349c.397.252.781.525 1.151.818 7.216 5.715 12.897 22.391 13.118 51.463.048.569.048 1.187.048 1.736Z" fill="#86BFBC"/><path d="M225.904 354.751h-33.049c-.248 0-.49-.08-.692-.23a1.238 1.238 0 0 1-.434-.606 1.287 1.287 0 0 1-.014-.755 1.24 1.24 0 0 1 .411-.623l8.262-6.722a15.645 15.645 0 0 0 4.289-5.515 16.248 16.248 0 0 0 1.526-6.912v-46.616h6.343v46.616a16.273 16.273 0 0 0 1.536 6.902 15.662 15.662 0 0 0 4.289 5.505l8.262 6.722c.204.156.356.375.432.626.076.251.073.52-.008.769a1.237 1.237 0 0 1-.445.616 1.154 1.154 0 0 1-.708.223Z" fill="#B8E3E2"/><g style="mix-blend-mode:overlay" opacity=".25" stroke="#000" stroke-width=".82" stroke-miterlimit="10" stroke-linecap="round"><path d="M251.112 176.983s.24.648.634 1.935"/><path d="M252.859 182.887a165.893 165.893 0 0 1 3.743 20.476c3.003 24.086-.048 57.896-20.209 79.319" stroke-dasharray="4.15 4.15"/><path d="M234.972 284.148c-.471.469-.96.928-1.44 1.387"/></g><path d="M212.546 286.772v12.706a43.885 43.885 0 0 1-6.343 2.773v-15.479h6.343ZM221.326 266.984c-1.497 4.847-10.814 3.99-11.947 7.57-2.399 7.61-3.733 4.259-12.964 5.226-5.278.559-9.107 4.079-11.419 6.982h-18.357l1.919-1.417 12.091-8.098 24.249-1.706c1.305-5.625 4.856-5.804 10.268-6.393 3.147-.339 3.454-5.864 2.495-13.175a172.948 172.948 0 0 0-3.436-17.334 110.914 110.914 0 0 1-2.284-12.467 115.493 115.493 0 0 1-.873-13.444c3.56 19.468 11.362 50.666 10.258 54.256Z" fill="#000" style="mix-blend-mode:overlay" opacity=".15"/><path d="M234.762 234.201v-1.745c-.221-30.599-6.516-47.474-14.27-52.282a33.09 33.09 0 0 1 9.923-3.909c-1.286 1.925-2.62 4.807-1.987 7.879 1.123 5.445 13.809 26.39 8.963 59.951-3.503 24.216-2.341 36.812 1.315 42.677h-26.159s22.215-6.792 22.215-52.571Z" fill="#000" style="mix-blend-mode:overlay" opacity=".15"/><path d="M74.565 209.267a15.53 15.53 0 0 1-.307 2.992h-9c-4.042-2.71-7.346-6.453-9.597-10.871 2.409 2.723 6.525 6.044 10.719 7.061 3.694.838 6.42.459 8.185.818Z" fill="#000" style="mix-blend-mode:overlay" opacity=".25"/><path d="M95.486 172.086c-.96 3.8-5.614 11.16-9.827 19.049-4.606 8.597-8.713 17.813-7.11 23.668.333 1.075.53 2.192.585 3.321 0 2.553-1.842 1.755-3.723.319a35.19 35.19 0 0 1-3.838-3.64l.143-11.34s-6.189-5.915-1.113-18.84c.327-.818.691-1.666 1.113-2.554 6.996-14.691 17.494-30.11 7.553-34.478 13.703-.878 18.318 16.556 16.217 24.495Z" fill="#20C3C5"/><path d="M79.247 147.591c2.582.647 4.817 2.319 6.228 4.657.363.57.683 1.166.96 1.786.265.626.493 1.269.681 1.925.198.652.349 1.319.451 1.994l.173.998.067.997a26.492 26.492 0 0 1-1.775 7.979 147.8 147.8 0 0 1-3.061 7.53c-2.188 4.987-4.549 9.814-6.622 14.801a69.433 69.433 0 0 0-2.744 7.599 25.138 25.138 0 0 0-.816 3.92 8.756 8.756 0 0 0 .25 3.85.435.435 0 0 1-.021.309.414.414 0 0 1-.22.21.39.39 0 0 1-.302-.018.412.412 0 0 1-.206-.232 9.7 9.7 0 0 1-.25-4.219c.196-1.368.494-2.719.893-4.039a70.487 70.487 0 0 1 2.879-7.64c2.14-4.986 4.558-9.804 6.803-14.721 1.114-2.453 2.198-4.937 3.138-7.47a26.113 26.113 0 0 0 1.852-7.849l-.047-.997-.154-.998c-.1-.674-.245-1.34-.432-1.994a19.466 19.466 0 0 0-.643-1.915 15.643 15.643 0 0 0-.96-1.786c-1.383-2.322-3.577-3.998-6.122-4.677Z" fill="#000" style="mix-blend-mode:overlay" opacity=".53"/><path d="M89.19 195.015c-4.193 11.499 0 20.216-6.305 21.453-2.878.578-4.155-1.646-4.682-4.229a24.414 24.414 0 0 1-.212-6.602 22.493 22.493 0 0 1 3.32-5.595c1.962-2.603 4.758-4.387 7.88-5.027Z" fill="#169799"/><path d="M74.564 209.267c0 2.673-.604 4.987-1.803 6.134a3.44 3.44 0 0 1-.346.319c-2.975 2.503-4.875-2.085-4.875-2.085s-7.916-4.059-11.841-12.287c-3.013-6.333-3.675-15.13 3.397-26.44 1.036 8.049 5.287 13.534 9.5 18.75a156.14 156.14 0 0 0 1.554 1.935c2.879 3.93 4.43 8.736 4.414 13.674Z" fill="#B8E3E2"/><path d="M59.096 174.908a37.006 37.006 0 0 0-.538 10.542 23.415 23.415 0 0 0 3.11 9.974c1.765 2.992 4.203 5.485 6.42 8.198a20.535 20.535 0 0 1 2.878 4.448 10.985 10.985 0 0 1 .96 5.356.412.412 0 0 1-.139.274.386.386 0 0 1-.284.095.378.378 0 0 1-.273-.138.407.407 0 0 1-.091-.301 10.098 10.098 0 0 0-.797-4.987 19.32 19.32 0 0 0-2.725-4.358c-2.14-2.713-4.568-5.276-6.305-8.378a23.668 23.668 0 0 1-2.965-10.123 37.132 37.132 0 0 1 .749-10.602Z" fill="#000" style="mix-blend-mode:overlay" opacity=".53"/><path d="M89.189 195.015c-1.2 1.446-2.323 2.992-3.388 4.518-1.065 1.526-2.082 3.201-2.994 4.797a30.902 30.902 0 0 0-3.838 10.532.421.421 0 0 1-.157.27.39.39 0 0 1-.294.079.37.37 0 0 1-.256-.158.41.41 0 0 1-.07-.3 31.397 31.397 0 0 1 4.308-10.622c.96-1.626 2.054-3.192 3.167-4.708s2.264-3.002 3.522-4.408Z" fill="#000" style="mix-blend-mode:overlay" opacity=".25"/><path d="m86.6 215.092-2.688 17.144c-.06.35-.239.666-.502.892a1.419 1.419 0 0 1-.937.345H65.776a1.433 1.433 0 0 1-.94-.347 1.533 1.533 0 0 1-.509-.89l-2.178-13.963-.509-3.221a1.597 1.597 0 0 1 .027-.664 1.56 1.56 0 0 1 .293-.589c.138-.172.31-.311.506-.406.195-.096.408-.145.623-.146h22.07c.22-.003.438.046.637.144.199.097.374.239.512.417.139.177.237.385.287.607.05.223.052.454.004.677Z" fill="#B8E3E2"/><path d="M89.19 218.582H59.099l.796-4.667c.082-.47.318-.895.668-1.204.35-.31.792-.483 1.251-.492h24.614c.46.007.903.18 1.253.489.35.31.586.736.666 1.207l.845 4.667Z" fill="#86BFBC"/><path d="M77.963 205.637a24.272 24.272 0 0 0 .211 6.582H74.23a15.53 15.53 0 0 0 .307-2.992c.016-4.938-1.536-9.744-4.414-13.674a162.778 162.778 0 0 1-1.555-1.934c.127-3.113.8-6.175 1.987-9.036.23 4.119 1.209 11.29 5.162 12.048 3.014.568 6.929-2.534 9.913-5.536-1.574 2.942-3.09 5.984-4.347 8.907a22.514 22.514 0 0 0-3.32 5.635ZM75.764 233.473h-9.99a1.433 1.433 0 0 1-.939-.347 1.533 1.533 0 0 1-.51-.89l-2.14-13.653h8.637a26.853 26.853 0 0 0 .182 8.248c.794 2.722 2.478 5.071 4.76 6.642Z" fill="#000" style="mix-blend-mode:overlay" opacity=".25"/><path d="M151.448 51.236H108.65c-2.115 0-3.829 1.782-3.829 3.98v33.082c0 2.198 1.714 3.98 3.829 3.98h42.798c2.115 0 3.829-1.782 3.829-3.98V55.216c0-2.198-1.714-3.98-3.829-3.98Z" fill="#383873"/><path d="M116.567 65.748v4.418c0 .17.065.332.18.452.115.12.271.187.434.187h2.351a.613.613 0 0 0 .438-.187.662.662 0 0 0 .186-.452v-4.418c0-.17.065-.332.18-.451a.602.602 0 0 1 .434-.187h.221c.164 0 .321.067.437.186.117.12.184.282.186.452v11.968a.657.657 0 0 1-.186.452.608.608 0 0 1-.437.186h-.221a.602.602 0 0 1-.434-.186.652.652 0 0 1-.18-.452V72.79a.662.662 0 0 0-.183-.458.611.611 0 0 0-.441-.19h-2.351a.612.612 0 0 0-.435.193.661.661 0 0 0-.179.455v4.927c0 .17-.065.332-.18.452a.602.602 0 0 1-.434.186h-.23a.604.604 0 0 1-.435-.186.652.652 0 0 1-.18-.452V65.748c0-.17.065-.332.18-.451a.604.604 0 0 1 .435-.187h.23c.163 0 .319.067.434.187.115.12.18.282.18.45ZM124.771 66.466h-1.103a.601.601 0 0 1-.434-.187.648.648 0 0 1-.18-.451v-.08c0-.17.064-.332.18-.451a.602.602 0 0 1 .434-.187h4.894c.163 0 .319.067.434.187.115.12.18.282.18.45v.08c0 .17-.065.332-.18.452a.601.601 0 0 1-.434.187h-1.104a.602.602 0 0 0-.434.187.652.652 0 0 0-.18.451v10.652c0 .17-.065.332-.18.451a.602.602 0 0 1-.434.187H126a.606.606 0 0 1-.435-.187.651.651 0 0 1-.179-.45V67.093a.653.653 0 0 0-.184-.445.602.602 0 0 0-.431-.183ZM138.265 72.68c-.096-1.756-.192-3.71-.135-5.207h-.077a79.523 79.523 0 0 1-1.026 4.618l-1.574 6.224h-.96l-1.497-5.984c-.412-1.696-.796-3.332-1.036-4.868h-.058c0 1.556-.076 3.411-.153 5.306l-.221 4.987a.66.66 0 0 1-.192.43.613.613 0 0 1-.422.178h-.067a.593.593 0 0 1-.449-.2.643.643 0 0 1-.165-.478l.681-11.968a.65.65 0 0 1 .193-.426.602.602 0 0 1 .421-.172h.518c.136 0 .269.047.377.133a.643.643 0 0 1 .218.345l1.382 5.596c.441 1.755.758 3.051 1.027 4.567h.057c.24-1.516.528-2.772.96-4.567l1.324-5.586a.645.645 0 0 1 .216-.35.602.602 0 0 1 .379-.138h.566c.157 0 .307.061.422.172a.65.65 0 0 1 .193.426l.671 11.968a.657.657 0 0 1-.165.478.593.593 0 0 1-.449.2h-.125a.6.6 0 0 1-.424-.176.654.654 0 0 1-.19-.432l-.22-5.076ZM142.496 65.1h.231c.162 0 .319.067.434.187.115.12.18.282.18.451V76.47c.002.17.069.332.186.452a.61.61 0 0 0 .437.186h2.371c.162 0 .319.067.434.187a.652.652 0 0 1 0 .903.603.603 0 0 1-.434.187h-3.839a.601.601 0 0 1-.434-.187.652.652 0 0 1-.18-.452V65.778a.645.645 0 0 1 .37-.626.591.591 0 0 1 .244-.052Z" fill="#fff"/><path d="M170.967 54.747a1.75 1.75 0 0 0 .807-.099c.258-.096.492-.251.685-.455a1.945 1.945 0 0 0 .504-1.56c-.014-.86-.071-1.72-.173-2.574a26.628 26.628 0 0 1-.182-2.663c0-2.732 1.602-3.88 3.675-3.88h.345v1.576h-.431c-1.229 0-1.718.908-1.718 2.274.011.768.069 1.534.173 2.294.057.788.144 1.516.144 2.244 0 2.364-.758 3.172-2.006 3.541v.06c1.248.389 2.034 1.207 2.006 3.6 0 .758-.087 1.516-.144 2.274-.103.77-.161 1.547-.173 2.324 0 1.366.432 2.304 1.746 2.304h.403v1.576h-.374c-1.919 0-3.646-.998-3.646-3.88.016-.9.077-1.799.182-2.693.1-.864.157-1.733.173-2.603a2 2 0 0 0-.08-.838 1.931 1.931 0 0 0-.418-.722 1.852 1.852 0 0 0-.676-.466 1.78 1.78 0 0 0-.803-.118l-.019-1.516ZM200.649 56.263a1.771 1.771 0 0 0-.805.115c-.257.1-.488.259-.678.465-.19.205-.332.453-.418.723-.085.271-.111.558-.076.841.016.87.073 1.74.173 2.603.101.894.159 1.793.172 2.693 0 2.882-1.717 3.88-3.636 3.88h-.346v-1.576h.403c1.315-.15 1.747-.938 1.747-2.304 0-.818-.087-1.566-.144-2.324a20.107 20.107 0 0 1-.173-2.274c0-2.393.758-3.211 2.006-3.6v-.06c-1.248-.37-2.035-1.177-2.006-3.54.017-.751.075-1.5.173-2.245.057-.728.144-1.476.144-2.294 0-1.366-.499-2.124-1.718-2.274h-.432v-1.575h.346c2.063 0 3.665 1.147 3.665 3.88-.013.89-.071 1.778-.172 2.662-.102.854-.16 1.713-.173 2.573a1.93 1.93 0 0 0 .494 1.557c.19.203.423.36.68.456.256.097.531.131.803.102l-.029 1.516Z" fill="#383873"/><path d="M190.658 58.457v-5.814l-4.856-2.913-4.846 2.913v5.814l4.846 2.913 4.856-2.913ZM227.16 87.47a11.427 11.427 0 0 0-7.952-.982c-2.681.643-5.061 2.237-6.733 4.507a12.629 12.629 0 0 0-2.429 7.932c.102 2.857 1.159 5.588 2.989 7.722l-1.775-.219a.384.384 0 0 0-.267.099.417.417 0 0 0-.065.545c.056.083.14.142.236.164l2.715.339a.375.375 0 0 0 .288-.09.394.394 0 0 0 .144-.269l.317-2.723a.428.428 0 0 0-.082-.304.384.384 0 0 0-.556-.07.415.415 0 0 0-.149.274l-.192 1.736a11.726 11.726 0 0 1-2.84-7.215 11.791 11.791 0 0 1 2.249-7.437c1.561-2.13 3.79-3.626 6.3-4.229a10.67 10.67 0 0 1 7.447.928.38.38 0 0 0 .29.01.402.402 0 0 0 .217-.2.426.426 0 0 0 .026-.3.407.407 0 0 0-.178-.238v.02ZM216.961 110.06a11.432 11.432 0 0 0 7.947.971c2.677-.646 5.054-2.239 6.724-4.508a12.625 12.625 0 0 0 2.426-7.924c-.101-2.855-1.155-5.583-2.981-7.718l1.785.22a.372.372 0 0 0 .289-.085.396.396 0 0 0 .143-.275.406.406 0 0 0-.199-.402.37.37 0 0 0-.147-.046l-2.706-.34a.367.367 0 0 0-.288.09.394.394 0 0 0-.143.27l-.317 2.722c-.003.102.031.2.095.278a.383.383 0 0 0 .525.067.408.408 0 0 0 .157-.245l.202-1.735a11.718 11.718 0 0 1 2.839 7.215 11.79 11.79 0 0 1-2.248 7.436c-1.562 2.131-3.79 3.627-6.301 4.23a10.67 10.67 0 0 1-7.446-.929.387.387 0 0 0-.148-.046.378.378 0 0 0-.287.098.394.394 0 0 0-.093.128.422.422 0 0 0-.014.299c.032.099.099.18.186.229ZM321.999 132.97h-71.078a2.304 2.304 0 0 1-1.659-.713 2.497 2.497 0 0 1-.003-3.449 2.307 2.307 0 0 1 1.662-.715h71.078c.623 0 1.221.257 1.662.715.441.458.689 1.08.689 1.728a2.493 2.493 0 0 1-.692 1.721 2.304 2.304 0 0 1-1.659.713Z" fill="#FF6224"/><path d="M296.618 143.571h-45.697a2.307 2.307 0 0 1-1.659-.712 2.497 2.497 0 0 1-.003-3.449 2.308 2.308 0 0 1 1.662-.716h45.697c.623 0 1.221.258 1.662.716a2.497 2.497 0 0 1-.003 3.449 2.309 2.309 0 0 1-1.659.712ZM296.618 154.951h-45.697a2.307 2.307 0 0 1-1.659-.712 2.497 2.497 0 0 1-.003-3.449 2.308 2.308 0 0 1 1.662-.716h45.697c.623 0 1.221.258 1.662.716a2.497 2.497 0 0 1-.003 3.449 2.309 2.309 0 0 1-1.659.712ZM69.969 92.457H33.044a2.297 2.297 0 0 1-1.656-.713 2.483 2.483 0 0 1-.686-1.72c0-.647.246-1.267.685-1.725a2.307 2.307 0 0 1 1.657-.719h36.925a2.307 2.307 0 0 1 1.656.72c.44.457.686 1.077.685 1.724 0 .645-.246 1.264-.685 1.72a2.297 2.297 0 0 1-1.656.713Z" fill="#20C3C5"/><path d="M56.026 103.059H33.044a2.295 2.295 0 0 1-1.656-.713 2.482 2.482 0 0 1-.686-1.721c0-.646.246-1.266.685-1.724a2.307 2.307 0 0 1 1.657-.72h22.982a2.307 2.307 0 0 1 1.656.72c.44.458.685 1.078.685 1.724 0 .646-.246 1.265-.685 1.721a2.295 2.295 0 0 1-1.656.713ZM56.026 114.439H33.044a2.3 2.3 0 0 1-1.656-.713 2.485 2.485 0 0 1-.686-1.721c0-.646.246-1.266.685-1.724a2.304 2.304 0 0 1 1.657-.719h22.982a2.304 2.304 0 0 1 1.656.719c.44.458.685 1.078.685 1.724 0 .645-.246 1.264-.685 1.721a2.3 2.3 0 0 1-1.656.713Z" fill="#FF6224"/><path d="M289.977 269.208a121.54 121.54 0 0 1-7.927 18.471c-9.932 18.86-21.476 30.868-21.907 48.452a109.297 109.297 0 0 1-.701-35.446c1.612-10.612 5.249-21.942 12.705-31.477 20.747-26.509 17.676-50.625 17.676-50.625s10.392 19.777.154 50.625Z" fill="#169799"/><path d="M265.536 315.496c-.25-2.154-.25-4.33 0-6.483a42.76 42.76 0 0 1 1.103-6.343 61.88 61.88 0 0 1 4.414-11.969c.902-1.925 1.968-3.76 3.014-5.605l3.339-5.356a74.815 74.815 0 0 0 5.431-11.369 111.548 111.548 0 0 0 3.839-12.068 139.674 139.674 0 0 0 2.677-12.437 119.431 119.431 0 0 0 1.468-12.657c.138-2.121.17-4.248.096-6.373a29.043 29.043 0 0 0-.288-3.172 10.44 10.44 0 0 0-.825-3.061c.443.963.738 1.993.873 3.051.174 1.05.286 2.109.336 3.172.106 2.13.106 4.263 0 6.393a112.698 112.698 0 0 1-1.315 12.706 134.54 134.54 0 0 1-2.562 12.507 114.08 114.08 0 0 1-3.742 12.128 76.748 76.748 0 0 1-5.374 11.539l-3.339 5.416c-1.027 1.825-2.083 3.64-2.956 5.545a60.159 60.159 0 0 0-4.318 11.829 44.097 44.097 0 0 0-1.094 6.213c-.24 2.074-.24 4.17 0 6.244a.418.418 0 0 1-.077.301.392.392 0 0 1-.259.158.382.382 0 0 1-.279-.066.41.41 0 0 1-.162-.243Z" fill="#000" style="mix-blend-mode:overlay" opacity=".25"/><path d="M282.05 287.679c-9.932 18.86-21.476 30.868-21.907 48.452a109.297 109.297 0 0 1-.701-35.446c6.439-2.733 15.498-7.191 22.608-13.006Z" fill="#000" style="mix-blend-mode:overlay" opacity=".25"/><path d="M265.911 354.761s-7.255-12.895 9.913-28.803c17.167-15.908 30.611-36.952 27.991-53.977-16.419 19.827-60.09 47.953-47.778 82.78h9.874Z" fill="#20C3C5"/><path d="M303.815 271.981a58.32 58.32 0 0 1-6.2 10.542 90.173 90.173 0 0 1-7.811 9.315 119.363 119.363 0 0 1-8.876 8.248 59.898 59.898 0 0 0-8.185 8.897 67.738 67.738 0 0 0-10.978 21.672 48.5 48.5 0 0 0-1.996 12.058 28.748 28.748 0 0 0 1.919 11.969.422.422 0 0 1-.002.305.404.404 0 0 1-.205.219.38.38 0 0 1-.294.01.403.403 0 0 1-.219-.205 29.423 29.423 0 0 1-1.919-12.268 49.629 49.629 0 0 1 2.198-12.277c2.429-7.906 6.238-15.28 11.237-21.752a59.888 59.888 0 0 1 8.3-8.867 117.368 117.368 0 0 0 8.924-8.158 88.939 88.939 0 0 0 7.879-9.236 58.457 58.457 0 0 0 6.228-10.472Z" fill="#000" style="mix-blend-mode:overlay" opacity=".25"/><path d="M19.484 261.359s-8.963-8.487-13.722-29.701c27.435 24.176 34.152 45.699 34.152 45.699l-20.43-15.998Z" fill="#169799"/><path d="M5.762 231.658a532.37 532.37 0 0 1 11.18 17.224 321.985 321.985 0 0 1 5.325 8.797 91.262 91.262 0 0 1 4.798 9.166.423.423 0 0 1-.072.45.395.395 0 0 1-.275.129.378.378 0 0 1-.283-.11.412.412 0 0 1-.09-.13 94.386 94.386 0 0 0-4.577-9.176 336.531 336.531 0 0 0-5.144-8.896 602.687 602.687 0 0 0-10.862-17.454Z" fill="#000" style="mix-blend-mode:overlay" opacity=".25"/><path d="M39.358 273.287c-4.932-4.617-12.235-9.205-19.192-14.132-9.241-6.553-17.858-13.754-19.451-22.51-3.628 31.735 31.878 46.017 31.878 46.017l.076.11 12.898 19.548s5.268-18.271-6.21-29.033Z" fill="#20C3C5"/><path d="M.715 236.645c.106 3.537.94 7.009 2.447 10.183a31.363 31.363 0 0 0 5.93 8.497 50.486 50.486 0 0 0 8.042 6.413c2.878 1.925 5.757 3.78 8.53 5.775 5.604 3.989 10.969 8.567 14.72 14.561 3.731 6.034 5.67 13.075 5.576 20.246a.415.415 0 0 1-.115.289.385.385 0 0 1-.557 0 .415.415 0 0 1-.115-.289c.157-7.042-1.678-13.978-5.278-19.947-3.637-5.924-8.905-10.562-14.451-14.551-2.783-1.995-5.652-3.9-8.473-5.855a50.057 50.057 0 0 1-8.013-6.532 31.69 31.69 0 0 1-5.844-8.607 25.551 25.551 0 0 1-2.4-10.183Z" fill="#000" style="mix-blend-mode:overlay" opacity=".25"/><path d="M292.155 368.914H53.589a6.685 6.685 0 0 1-4.818-2.074 7.227 7.227 0 0 1-1.996-5.008c0-.93.177-1.85.519-2.709.342-.86.844-1.64 1.477-2.298a6.813 6.813 0 0 1 2.21-1.535 6.587 6.587 0 0 1 2.608-.539h238.566c.895 0 1.781.183 2.607.539a6.815 6.815 0 0 1 2.211 1.535 7.107 7.107 0 0 1 1.476 2.298c.343.859.519 1.779.519 2.709a7.23 7.23 0 0 1-1.995 5.008 6.686 6.686 0 0 1-4.818 2.074Z" fill="#EAF9F8"/></svg>