<svg width="304" height="326" fill="none" xmlns="http://www.w3.org/2000/svg">
    <path
        d="M216.593 313.018a1.134 1.134 0 0 1-.506-.123 1.194 1.194 0 0 1-.406-.336l-91.459-118.176a1.263 1.263 0 0 1 .182-1.726c.244-.204.556-.298.868-.262.311.035.596.198.792.452l91.45 118.176a1.268 1.268 0 0 1 .136 1.317 1.205 1.205 0 0 1-.452.506c-.194.12-.418.18-.644.172h.039Z"
        fill="#E03C03" />
    <path
        d="M74.734 313.018a1.17 1.17 0 0 1-.739-.269 1.262 1.262 0 0 1-.173-1.726l91.45-118.176a1.21 1.21 0 0 1 .35-.345 1.142 1.142 0 0 1 1.361.088c.127.106.231.238.306.387a1.282 1.282 0 0 1 .066.978 1.237 1.237 0 0 1-.25.428l-91.45 118.176a1.15 1.15 0 0 1-.921.459Z"
        fill="#FF6224" />
    <path
        d="M166.184 313.018a1.175 1.175 0 0 1-.911-.459l-91.45-118.176a1.242 1.242 0 0 1-.315-.924 1.27 1.27 0 0 1 .131-.482 1.183 1.183 0 0 1 .734-.615 1.148 1.148 0 0 1 .933.14c.138.089.257.206.35.345l91.449 118.176a1.26 1.26 0 0 1-.182 1.726c-.209.176-.47.271-.739.269Z"
        fill="#FF6224" />
    <path
        d="M90.943 196.746H48.452a2.962 2.962 0 0 1-2.128-.92 3.206 3.206 0 0 1-.886-2.211c0-.832.318-1.629.882-2.218a2.968 2.968 0 0 1 2.132-.924h42.49c.397 0 .79.081 1.156.239.366.158.699.39.979.682.28.292.501.638.652 1.019.151.381.228.79.227 1.202 0 .83-.318 1.627-.883 2.214a2.958 2.958 0 0 1-2.13.917Z"
        fill="#E03C03" />
    <path
        d="M213.186 196.746H91.748a2.964 2.964 0 0 1-2.117-.909 3.203 3.203 0 0 1-.896-2.192c0-.832.317-1.629.882-2.218a2.968 2.968 0 0 1 2.132-.924h121.437v6.243Z"
        fill="#FF6224" />
    <path
        d="M123.76 252.698a3.533 3.533 0 0 1-.551 1.909 3.339 3.339 0 0 1-1.48 1.268 3.189 3.189 0 0 1-1.908.199 3.266 3.266 0 0 1-1.693-.936 3.48 3.48 0 0 1-.906-1.757 3.556 3.556 0 0 1 .187-1.984 3.4 3.4 0 0 1 1.215-1.541 3.217 3.217 0 0 1 1.835-.579c.874 0 1.712.36 2.331 1.001a3.5 3.5 0 0 1 .97 2.42Z"
        fill="#E03C03" />
    <path
        d="M174.168 252.698a3.533 3.533 0 0 1-.551 1.909 3.339 3.339 0 0 1-1.48 1.268 3.189 3.189 0 0 1-1.908.199 3.26 3.26 0 0 1-1.692-.936 3.473 3.473 0 0 1-.906-1.757 3.546 3.546 0 0 1 .186-1.984 3.4 3.4 0 0 1 1.215-1.541 3.22 3.22 0 0 1 1.835-.579c.874 0 1.712.36 2.331 1.001a3.5 3.5 0 0 1 .97 2.42Z"
        fill="#FFC947" />
    <path
        d="M52.172 25H9.374c-2.115 0-3.83 1.782-3.83 3.98v33.082c0 2.198 1.715 3.98 3.83 3.98h42.798c2.114 0 3.829-1.782 3.829-3.98V28.98c0-2.198-1.715-3.98-3.83-3.98Z"
        fill="#7702FF" />
    <path
        d="m21.545 36 1.578 17.824L30.545 56l7.467-2.175L39.545 36h-18Zm14.049 6.048H27.62l.172 2.016h7.697l-.626 6.565-4.246 1.381-4.281-1.455-.288-2.932h2.024l.16 1.411 2.4.815 2.346-.763.297-3.005H25.96l-.562-6.05H35.81l-.217 2.017ZM128.761 76.954h103.023c.422 0 .827.175 1.126.485.299.31.467.732.467 1.17v3.392H127.168V78.61c0-.44.168-.86.467-1.171a1.56 1.56 0 0 1 1.126-.485Z"
        fill="#fff" />
    <path
        d="M127.168 82.02h106.209v55.773c0 .817-.313 1.601-.869 2.179a2.91 2.91 0 0 1-2.097.903H130.133c-.786 0-1.54-.325-2.097-.903a3.145 3.145 0 0 1-.868-2.179V82.021Z"
        fill="#383873" />
    <path
        d="M228.28 79.497a.802.802 0 0 1-.126.433.753.753 0 0 1-.336.286.721.721 0 0 1-.432.044.74.74 0 0 1-.384-.213.811.811 0 0 1-.162-.848.776.776 0 0 1 .276-.348.729.729 0 0 1 .945.096c.14.146.219.344.219.55ZM223.147 79.497a.802.802 0 0 1-.126.433.753.753 0 0 1-.336.286.72.72 0 0 1-.815-.168.787.787 0 0 1-.205-.399.811.811 0 0 1 .042-.45.776.776 0 0 1 .276-.348.729.729 0 0 1 .945.096.79.79 0 0 1 .219.55ZM218.013 79.497a.794.794 0 0 1-.127.433.756.756 0 0 1-.335.286.724.724 0 0 1-.816-.168.803.803 0 0 1-.162-.848.767.767 0 0 1 .275-.35.729.729 0 0 1 .945.097c.141.146.22.344.22.55Z"
        fill="#FF6224" />
    <path
        d="M191.7 89.97h-59.025c-.272 0-.533-.113-.726-.313a1.092 1.092 0 0 1-.301-.755c0-.283.109-.554.301-.754.193-.2.454-.313.726-.313H191.7c.264.018.511.141.69.344.179.202.275.469.27.743a1.087 1.087 0 0 1-.283.719c-.178.194-.42.311-.677.328ZM191.7 96.761h-59.025c-.272 0-.533-.112-.726-.312a1.092 1.092 0 0 1-.301-.755c0-.283.109-.554.301-.754.193-.2.454-.313.726-.313H191.7c.273 0 .534.113.726.313.193.2.301.471.301.754 0 .283-.108.555-.301.755-.192.2-.453.313-.726.313ZM163.517 103.554h-30.842a1.01 1.01 0 0 1-.726-.313 1.092 1.092 0 0 1 0-1.509c.193-.2.454-.313.726-.313h30.842c.272 0 .533.113.726.313a1.092 1.092 0 0 1 0 1.509 1.01 1.01 0 0 1-.726.313Z"
        fill="#20C3C5" />
    <path
        d="M191.7 117.127h-59.025c-.272 0-.533-.112-.726-.312a1.094 1.094 0 0 1 0-1.51c.193-.2.454-.312.726-.312H191.7c.273 0 .534.112.726.312.193.201.301.472.301.755 0 .283-.108.555-.301.755-.192.2-.453.312-.726.312ZM163.517 123.919h-30.842c-.272 0-.533-.112-.726-.312a1.092 1.092 0 0 1 0-1.509c.193-.2.454-.313.726-.313h30.842c.269 0 .527.11.719.306a1.086 1.086 0 0 1 .235 1.156 1.07 1.07 0 0 1-.221.353 1.02 1.02 0 0 1-.733.319Z"
        fill="#FF6224" />
    <path
        d="M163.517 130.711h-30.842c-.272 0-.533-.112-.726-.312a1.092 1.092 0 0 1 0-1.509c.193-.2.454-.313.726-.313h30.842c.272 0 .533.113.726.313a1.092 1.092 0 0 1 0 1.509c-.193.2-.454.312-.726.312Z"
        fill="#20C3C5" />
    <path
        d="M191.701 103.554h-22.166c-.273 0-.534-.113-.726-.313a1.088 1.088 0 0 1-.301-.755c0-.283.108-.554.301-.754.192-.2.453-.313.726-.313h22.166c.261.018.505.138.683.336.179.199.278.46.277.731.001.272-.098.533-.277.731a1.009 1.009 0 0 1-.683.337Z"
        fill="#fff" />
    <path
        d="m220.921 88.304-15.671 16.287a1 1 0 0 1-.724.315.985.985 0 0 1-.725-.315 1.07 1.07 0 0 1-.303-.753 1.093 1.093 0 0 1 .303-.753l15.671-16.287a1.01 1.01 0 0 1 .724-.315.987.987 0 0 1 .725.315 1.095 1.095 0 0 1 0 1.506ZM221.367 121.341c1.178-5.161-1.893-10.338-6.859-11.562-4.966-1.223-9.946 1.968-11.124 7.13-1.177 5.161 1.894 10.337 6.86 11.561 4.966 1.224 9.946-1.968 11.123-7.129Z"
        fill="#FF6224" />
    <path
        d="M211.152 125.824a5.593 5.593 0 0 1-.881 3.02 5.28 5.28 0 0 1-2.347 2.002 5.05 5.05 0 0 1-3.022.31 5.176 5.176 0 0 1-2.678-1.488 5.51 5.51 0 0 1-1.431-2.783 5.643 5.643 0 0 1 .297-3.141 5.398 5.398 0 0 1 1.927-2.439 5.091 5.091 0 0 1 2.905-.916c1.387 0 2.717.573 3.698 1.592a5.544 5.544 0 0 1 1.532 3.843Z"
        fill="#20C3C5" />
    <path d="M127.168 134.91v19.419l17.177-17.843" fill="#383873" />
    <path d="M108.887 159.585h37.683l13.617 27.248h-37.674l-13.626-27.248Z" fill="#86BFBC" />
    <path
        d="m123.282 184.818-11.285-22.56a.73.73 0 0 1 .045-.667.692.692 0 0 1 .24-.238.648.648 0 0 1 .32-.092h32.626a.646.646 0 0 1 .354.1.684.684 0 0 1 .251.279l11.284 22.57a.734.734 0 0 1-.288.9.66.66 0 0 1-.316.097h-32.627a.652.652 0 0 1-.355-.105.686.686 0 0 1-.249-.284Z"
        fill="#fff" />
    <path d="M153.028 186.833h-30.515v3.64h30.515v-3.64Z" fill="#B8E3E2" />
    <path
        d="M179.226 186.833h-30.093a1.718 1.718 0 0 0-1.238.535 1.864 1.864 0 0 0-.508 1.29c-.002.238.043.475.13.696.087.221.216.421.378.59.163.169.356.303.568.393.213.091.441.137.67.136h30.093a1.71 1.71 0 0 0 1.238-.529 1.862 1.862 0 0 0 .509-1.286 1.837 1.837 0 0 0-.508-1.29 1.739 1.739 0 0 0-.568-.396 1.69 1.69 0 0 0-.671-.139Z"
        fill="#9FCCC9" />
    <path
        d="m122.513 186.833-13.626-27.248-.682.529a1.168 1.168 0 0 0-.419.677c-.058.27-.022.554.103.799l14.624 28.923v-3.68Z"
        fill="#B8E3E2" />
    <path
        d="M136.047 188.081h-3.359v.609h3.359v-.609ZM140.457 188.538h-3.358v.608h3.358v-.608ZM144.681 188.538h-3.359v.608h3.359v-.608Z"
        fill="#9FCCC9" />
    <path
        d="M191.201 240.181s-31.245 25.293-36.206 31.716c-1.871 2.434-5.124 6.692-8.502 11.061-5.546 7.171-11.429 14.651-12.129 14.83-1.113.29-10.498-7.131-10.776-8.726-.173-.998 8.367-16.227 15.756-28.475 4.501-7.44 8.569-13.793 9.999-15.17 3.771-3.64 27.023-16.436 27.023-16.436l14.835 11.2Z"
        fill="#383873" />
    <path d="M131.563 292.383s29.201-43.196 43.854-50.466" stroke="#000" stroke-width=".82" stroke-miterlimit="10"
        stroke-linecap="round" style="mix-blend-mode:overlay" opacity=".15" />
    <path
        d="M223.781 129.275c-.336.788-.71 1.596-1.133 2.434-2.293 4.538-.604 9.086-3.205 10.243-.17.074-.347.131-.528.169-3.358.778-11.102-3.869-11.448-6.203-.345-2.334 2.39-6.303 0-6.792-2.389-.489-3.675 3.69-3.675 3.69-1.919.219-2.658-3.201-5.882-3.201a4.976 4.976 0 0 0-1.334.179 9.365 9.365 0 0 0-3.694 2.114 9.336 9.336 0 0 0-.96.998 6.599 6.599 0 0 1-2.043-2.446 6.883 6.883 0 0 1-.692-3.159c.23-5.885 2.322-10.173 7.36-11.051.557-6.543 5.758-10.043 12.667-10.263 6.065-.189 6.976 5.476 7.12 6.892a16.307 16.307 0 0 0-1.785-6.892c3.042-.139 5.758 2.115 5.019 9.465.701-2.184 3.157-3.57 5.038-1.995-1.747 0-3.426 3.052-3.426 3.052a11.997 11.997 0 0 1 3.445 3.88c1.142 2.094.662 5.176-.844 8.886Z"
        fill="#382424" />
    <path
        d="m219.443 141.951-.076 1.078-.269 3.82s-5.594 4.986-8.771 0l-.067-.1c-.96-1.516-1.871-1.995-2.677-2.145-1.756-.219-3.167 1.556-4.625-.369a37.642 37.642 0 0 1-6.382-14.421c.435-.12.884-.18 1.334-.18 3.224 0 3.925 3.421 5.882 3.202 0 0 1.296-4.169 3.676-3.691 2.379.479-.336 4.469 0 6.792.153.998 1.775 2.544 3.838 3.82 2.389 1.486 5.374 2.673 7.274 2.444l.336-.06c.181-.045.358-.109.527-.19Z"
        fill="#FFAD94" />
    <path
        d="M220.315 149.063c-2.524 1.785-7.14 2.084-7.14 2.084l-3.781-.578s-1.583-2.384-.844-3.72c.268-.397.592-.75.96-1.047a27.18 27.18 0 0 1 4.337-2.883 13.558 13.558 0 0 1 4.798-1.765c3.253-.19 4.184 6.114 1.67 7.909Z"
        fill="#000" style="mix-blend-mode:overlay" opacity=".25" />
    <path
        d="M219.529 212.734c-5.623 1.127-17.522-2.314-23.222-4.987a8.213 8.213 0 0 1-3.099-1.995c-1.094-1.994 0-3.54 2.715-9.893.307-.718.634-1.486.96-2.334 1.833-4.498 1.842-14.083 1.833-22.361 0-7.071-.048-13.175 1.036-14.262 2.342-2.354 14.058-10.053 14.058-10.053l2.342 12.636s1.314 6.423 2.706 14.791c2.591 15.379 5.469 37.51.671 38.458Z"
        fill="#20C3C5" />
    <path
        d="M223.482 218.359c0 .578-5.595 14.152-10.297 16.097-4.702 1.945-33-.199-33-.199l-14.001 9.515 2.936 28.664 2.044 19.947.058.648c-4.28 2.902-15.066 3.68-16.227 1.177-1.123-2.524-18.29-56.261-11.563-65.566 6.727-9.306 49.822-22.89 49.822-22.89a23.988 23.988 0 0 0 3.839 1.995 71.283 71.283 0 0 0 15.517 4.069c1.775.29 3.339.499 4.538.649 1.507.189 2.419.259 2.419.259s3.915 5.047 3.915 5.635Z"
        fill="#383873" />
    <path
        d="M172.998 311.751h-36.397a2.289 2.289 0 0 1 .064-1.078c.108-.348.296-.663.55-.916 1.478-1.845 5.172-3.701 8.742-5.306 3.387-1.516 6.64-2.823 7.677-3.72 2.571-2.115 1.382-6.224 1.314-6.483.394.848 1.92 1.316 3.839 1.456 3.838.289 9.596-.708 12.388-2.633l-.057-.648c1.074 2.154 1.593 12.806 1.765 17.334.096 1.216.115 1.994.115 1.994Z"
        fill="#0C2059" />
    <path
        d="M158.834 295.674c-.106 1.805-.355 4.727-.864 5.505-.739 1.167-8.77 5.246-9.884 4.857a6.788 6.788 0 0 1-2.13-1.615c3.387-1.516 6.64-2.823 7.677-3.72 2.572-2.115 1.382-6.224 1.315-6.483.441.848 1.928 1.316 3.886 1.456ZM172.998 311.751h-36.397a2.288 2.288 0 0 1 .064-1.078c.108-.348.296-.663.55-.917h35.716c.048 1.217.067 1.995.067 1.995Z"
        fill="#2E4780" />
    <path
        d="M134.364 297.788a88.913 88.913 0 0 1-5.163 11.55c-.96 1.605-1.852 2.643-2.486 2.383-2.245-.867-24.738-20.745-22.579-22.201.445-.25.935-.4 1.439-.439a41.771 41.771 0 0 1 8.205.339c2.572.28 4.971.579 6.218.579 3.177 0 3.589-.997 3.589-.997a6.042 6.042 0 0 0 1.555 1.994c2.783 2.803 8.377 7.012 9.222 6.792Z"
        fill="#0C2059" />
    <path
        d="M125.142 291.056a10.11 10.11 0 0 1-5.286 1.825 10.06 10.06 0 0 1-5.433-1.276 2.28 2.28 0 0 1-.599-.988 2.342 2.342 0 0 1-.044-1.167c2.572.28 4.971.579 6.219.579 3.176 0 3.588-.997 3.588-.997a6.057 6.057 0 0 0 1.555 2.024ZM129.201 309.338c-.96 1.605-1.852 2.643-2.486 2.383-2.245-.867-24.738-20.745-22.579-22.201.445-.25.935-.4 1.439-.439l23.626 20.257Z"
        fill="#2E4780" />
    <path
        d="M196.363 187.98c-1.756 2.543-4.913 6.432-7.504 6.034l-.316-.05c-4.952-.908-34.047-8.498-35.429-8.777-1.382-.279-11.189-.389-10.632-1.456.556-1.067 6.16-4.458 7.677-4.379 1.516.08 7.379 1.856 13.252 1.666 5.872-.189 21.274 0 21.274 0l.749-1.346 1.103-1.995c-.336 5.994 6.535 10.781 9.826 10.303Z"
        fill="#FFAD94" />
    <path
        d="M196.364 210.061s-1.344 7.42 3.886 9.894M193.62 216.025s-34.545 15.33-36.225 20.077c-1.679 4.747 8.79 56.281 8.79 56.281"
        stroke="#000" stroke-width=".82" stroke-miterlimit="10" stroke-linecap="round" style="mix-blend-mode:overlay"
        opacity=".15" />
    <path
        d="M223.483 218.359c0 .578-5.594 14.152-10.296 16.097-4.702 1.945-33.001-.199-33.001-.199l-14 9.515 2.936 28.664s-5.921-32.724-5.921-34.908c0-1.825 39.104-13.504 49.41-25.732 4.03.669 6.957.908 6.957.908s3.915 5.067 3.915 5.655Z"
        fill="#000" style="mix-blend-mode:overlay" opacity=".15" />
    <path
        d="M205.048 183.671c-2.427 3.581-6.333 8.119-9.087 12.228.307-.718.633-1.486.96-2.334 1.832-4.498 1.842-14.083 1.832-22.361l8.387-5.755s1.833 12.418-2.092 18.222Z"
        fill="#000" style="mix-blend-mode:overlay" opacity=".25" />
    <path
        d="M197.899 186.872c-.364.35-.729.689-1.103.998-.14.049-.285.083-.432.1-3.291.478-10.162-4.359-9.855-10.283.19-.873.514-1.708.96-2.474 2.811-5.894 11.265-19.009 12.82-18.401 0 0 5.441.868 6.919 8.587 1.333 7.301-3.657 16.028-9.309 21.473Z"
        fill="#169799" />
    <path
        d="M217.148 212.475c-1.199-.15-2.763-.359-4.538-.649a71.283 71.283 0 0 1-15.517-4.069c4.222-.159 13.271-2.992 14.394-24.555a110.623 110.623 0 0 0 2.284 12.437 177.378 177.378 0 0 1 3.377 16.836ZM214.913 141.523c-.368.443-.711.91-1.026 1.396a27.207 27.207 0 0 0-4.338 2.852 3.112 3.112 0 0 0-1.967-1.196l3.723-4.867a20.05 20.05 0 0 0 3.608 1.815Z"
        fill="#000" style="mix-blend-mode:overlay" opacity=".25" />
    <path
        d="M207.172 23h-42.798c-2.115 0-3.829 1.782-3.829 3.98v33.082c0 2.198 1.714 3.98 3.829 3.98h42.798c2.115 0 3.829-1.782 3.829-3.98V26.979c0-2.197-1.714-3.979-3.829-3.979Z"
        fill="#7702FF" />
    <path
        d="M172 31v28h28V31h-28Zm15.238 21.837c0 2.725-1.6 3.969-3.931 3.969-2.106 0-3.325-1.087-3.95-2.406l2.144-1.294c.413.731.788 1.35 1.694 1.35.862 0 1.412-.338 1.412-1.656v-8.944h2.631v8.981Zm6.224 3.969c-2.444 0-4.025-1.162-4.794-2.688l2.144-1.237c.563.919 1.3 1.6 2.594 1.6 1.087 0 1.788-.544 1.788-1.3 0-.9-.713-1.219-1.919-1.75l-.656-.281c-1.9-.806-3.156-1.825-3.156-3.969 0-1.975 1.506-3.475 3.85-3.475 1.675 0 2.875.581 3.738 2.106l-2.05 1.313c-.45-.806-.938-1.125-1.694-1.125-.768 0-1.256.488-1.256 1.125 0 .788.488 1.106 1.619 1.6l.656.281c2.238.956 3.494 1.938 3.494 4.137 0 2.363-1.863 3.662-4.357 3.662l-.001.001Z"
        fill="#F0DB4F" />
    <path
        d="M196.364 187.98c-1.756 2.543-4.913 6.432-7.504 6.034l-.317-.05c-3.205-4.818-3.32-11.131-3.138-14.292l1.104-1.995c-.307 5.994 6.563 10.781 9.855 10.303ZM223.779 129.275c-.336.788-.71 1.596-1.132 2.434a16.835 16.835 0 0 0-1.468 6.283c-.37-.293-.755-.566-1.152-.818a20.574 20.574 0 0 0-5.114 4.349c-3.417-1.277-7.198-3.99-7.437-5.615-.336-2.324 2.389-6.304 0-6.792-2.39-.489-3.676 3.69-3.676 3.69-1.919.219-2.658-3.202-5.882-3.202-.45 0-.899.06-1.334.18a9.372 9.372 0 0 0-3.694 2.114s3.637-5.306 9.327-4.229c0 0-.835-1.655-4.664-1.456 8.023-2.722 13.156-1.645 15.632 1.357 2.006 2.463 6.737 5.505 10.594 1.705Z"
        fill="#000" style="mix-blend-mode:overlay" opacity=".25" />
    <path
        d="M240.094 243.771h-28.001s22.215-6.792 22.215-52.57v-1.746c-.221-30.598-6.516-47.474-14.27-52.281a33.08 33.08 0 0 1 9.923-3.909 51.094 51.094 0 0 1 6.179-.998c19.192-1.995 34.488 5.785 36.312 14.621 1.823 8.837-9.404 96.883-32.358 96.883Z"
        fill="#B8E3E2" />
    <path
        d="M234.307 191.201c0 45.778-22.215 52.57-22.215 52.57h-45.907l1.919-1.416 12.091-8.098 24.249-1.716c1.305-5.625 4.855-5.804 10.268-6.393 3.147-.339 3.454-5.864 2.495-13.175a172.948 172.948 0 0 0-3.436-17.334 110.914 110.914 0 0 1-2.284-12.467 115.288 115.288 0 0 1-.873-13.444 118.55 118.55 0 0 1 2.198-23.827c.115-.578.23-1.137.345-1.666v-.049a11.992 11.992 0 0 1 1.718-2.653 20.574 20.574 0 0 1 5.114-4.349c.397.252.782.525 1.152.818 7.216 5.715 12.897 22.391 13.118 51.463.048.569.048 1.187.048 1.736Z"
        fill="#86BFBC" />
    <path
        d="M225.449 311.751H192.4c-.248 0-.49-.08-.692-.23a1.232 1.232 0 0 1-.434-.606 1.287 1.287 0 0 1-.014-.755 1.24 1.24 0 0 1 .411-.623l8.262-6.722a15.645 15.645 0 0 0 4.289-5.515 16.248 16.248 0 0 0 1.526-6.912v-46.616h6.343v46.616a16.273 16.273 0 0 0 1.536 6.902 15.662 15.662 0 0 0 4.289 5.505l8.262 6.722c.204.156.355.375.432.626.076.251.073.52-.008.769a1.237 1.237 0 0 1-.445.616 1.154 1.154 0 0 1-.708.223Z"
        fill="#B8E3E2" />
    <g style="mix-blend-mode:overlay" opacity=".25" stroke="#000" stroke-width=".82" stroke-miterlimit="10"
        stroke-linecap="round">
        <path d="M250.658 133.983s.24.648.634 1.935" />
        <path d="M252.405 139.887a165.893 165.893 0 0 1 3.743 20.476c3.003 24.086-.048 57.896-20.21 79.319"
            stroke-dasharray="4.15 4.15" />
        <path d="M234.518 241.148c-.471.469-.96.928-1.44 1.387" />
    </g>
    <path
        d="M212.092 243.772v12.706a43.885 43.885 0 0 1-6.343 2.773v-15.479h6.343ZM220.872 223.984c-1.497 4.847-10.814 3.99-11.947 7.57-2.399 7.61-3.733 4.259-12.964 5.226-5.278.559-9.107 4.079-11.419 6.982h-18.357l1.919-1.417 12.091-8.098 24.249-1.706c1.305-5.625 4.855-5.804 10.268-6.393 3.147-.339 3.454-5.864 2.495-13.175a172.948 172.948 0 0 0-3.436-17.334 110.914 110.914 0 0 1-2.284-12.467 115.274 115.274 0 0 1-.873-13.444c3.56 19.468 11.362 50.666 10.258 54.256Z"
        fill="#000" style="mix-blend-mode:overlay" opacity=".15" />
    <path
        d="M234.308 191.201v-1.745c-.221-30.599-6.516-47.474-14.27-52.282a33.08 33.08 0 0 1 9.923-3.909c-1.286 1.925-2.62 4.807-1.987 7.879 1.123 5.445 13.809 26.39 8.963 59.951-3.503 24.216-2.342 36.812 1.315 42.677h-26.159s22.215-6.792 22.215-52.571Z"
        fill="#000" style="mix-blend-mode:overlay" opacity=".15" />
    <path
        d="M74.111 166.267a15.53 15.53 0 0 1-.307 2.992h-9.001c-4.041-2.71-7.346-6.453-9.596-10.871 2.409 2.723 6.525 6.044 10.719 7.061 3.694.838 6.42.459 8.185.818Z"
        fill="#000" style="mix-blend-mode:overlay" opacity=".25" />
    <path
        d="M95.03 129.086c-.959 3.8-5.613 11.16-9.826 19.049-4.606 8.597-8.713 17.813-7.11 23.668.333 1.075.53 2.192.585 3.321 0 2.553-1.842 1.755-3.723.319a35.19 35.19 0 0 1-3.839-3.64l.144-11.34s-6.19-5.915-1.113-18.84c.327-.818.691-1.666 1.113-2.554 6.996-14.691 17.494-30.11 7.552-34.478 13.703-.878 18.32 16.556 16.218 24.495Z"
        fill="#20C3C5" />
    <path
        d="M78.793 104.591c2.582.647 4.817 2.319 6.228 4.657.363.57.683 1.166.96 1.786.265.626.493 1.269.68 1.925.199.652.35 1.319.452 1.994l.173.998.067.997a26.492 26.492 0 0 1-1.775 7.979 147.8 147.8 0 0 1-3.062 7.53c-2.187 4.987-4.548 9.814-6.62 14.801a69.433 69.433 0 0 0-2.745 7.599 25.138 25.138 0 0 0-.816 3.92 8.756 8.756 0 0 0 .25 3.85.435.435 0 0 1-.021.309.414.414 0 0 1-.22.21.39.39 0 0 1-.302-.018.412.412 0 0 1-.206-.232 9.7 9.7 0 0 1-.25-4.219c.196-1.368.494-2.719.893-4.039a70.487 70.487 0 0 1 2.879-7.64c2.14-4.986 4.558-9.804 6.803-14.721 1.114-2.453 2.198-4.937 3.138-7.47a26.113 26.113 0 0 0 1.852-7.849l-.048-.997-.153-.998c-.1-.674-.245-1.34-.432-1.994a19.466 19.466 0 0 0-.643-1.915 15.643 15.643 0 0 0-.96-1.786c-1.383-2.322-3.577-3.998-6.122-4.677Z"
        fill="#000" style="mix-blend-mode:overlay" opacity=".53" />
    <path
        d="M88.735 152.015c-4.194 11.499 0 20.216-6.305 21.453-2.878.578-4.155-1.646-4.682-4.229a24.414 24.414 0 0 1-.212-6.602 22.49 22.49 0 0 1 3.32-5.595c1.962-2.603 4.758-4.387 7.879-5.027Z"
        fill="#169799" />
    <path
        d="M74.11 166.267c0 2.673-.604 4.987-1.804 6.134a3.44 3.44 0 0 1-.345.319c-2.975 2.503-4.875-2.085-4.875-2.085s-7.917-4.059-11.841-12.287c-3.014-6.333-3.676-15.13 3.397-26.44 1.036 8.049 5.287 13.534 9.5 18.75a156.14 156.14 0 0 0 1.554 1.935c2.879 3.93 4.43 8.736 4.414 13.674Z"
        fill="#B8E3E2" />
    <path
        d="M58.642 131.908a37.006 37.006 0 0 0-.538 10.542 23.415 23.415 0 0 0 3.11 9.974c1.765 2.992 4.202 5.485 6.419 8.198a20.535 20.535 0 0 1 2.879 4.448 10.985 10.985 0 0 1 .96 5.356.412.412 0 0 1-.139.274.386.386 0 0 1-.284.095.378.378 0 0 1-.273-.138.407.407 0 0 1-.091-.301 10.098 10.098 0 0 0-.797-4.987 19.324 19.324 0 0 0-2.725-4.358c-2.14-2.713-4.568-5.276-6.305-8.378a23.668 23.668 0 0 1-2.965-10.123 37.132 37.132 0 0 1 .749-10.602Z"
        fill="#000" style="mix-blend-mode:overlay" opacity=".53" />
    <path
        d="M88.734 152.015c-1.2 1.446-2.322 2.992-3.387 4.518-1.065 1.526-2.082 3.201-2.994 4.797a30.902 30.902 0 0 0-3.838 10.532.421.421 0 0 1-.158.27.39.39 0 0 1-.437.027.396.396 0 0 1-.177-.249.41.41 0 0 1-.006-.157 31.397 31.397 0 0 1 4.309-10.622c.96-1.626 2.053-3.192 3.167-4.708 1.113-1.516 2.264-3.002 3.521-4.408Z"
        fill="#000" style="mix-blend-mode:overlay" opacity=".25" />
    <path
        d="m86.144 172.092-2.687 17.144c-.06.35-.239.666-.502.892a1.419 1.419 0 0 1-.937.345H65.32a1.433 1.433 0 0 1-.94-.347 1.534 1.534 0 0 1-.51-.89l-2.177-13.963-.509-3.221a1.597 1.597 0 0 1 .027-.664 1.56 1.56 0 0 1 .293-.589c.138-.172.31-.311.506-.406.195-.096.407-.145.623-.146h22.07c.22-.003.438.046.637.144.199.097.374.239.512.417.139.177.237.385.287.607.05.223.052.454.004.677Z"
        fill="#B8E3E2" />
    <path
        d="M88.736 175.582H58.643l.796-4.667c.082-.47.318-.895.668-1.204.35-.31.792-.483 1.251-.492h24.614c.46.007.903.18 1.253.489.35.31.586.736.666 1.207l.845 4.667Z"
        fill="#86BFBC" />
    <path
        d="M77.509 162.637a24.272 24.272 0 0 0 .21 6.582h-3.943a15.53 15.53 0 0 0 .307-2.992c.016-4.938-1.536-9.744-4.414-13.674a162.778 162.778 0 0 1-1.555-1.934c.127-3.113.8-6.175 1.987-9.036.23 4.119 1.209 11.29 5.162 12.048 3.013.568 6.929-2.534 9.913-5.536-1.574 2.942-3.09 5.984-4.347 8.907a22.514 22.514 0 0 0-3.32 5.635ZM75.31 190.473h-9.99a1.433 1.433 0 0 1-.939-.347 1.533 1.533 0 0 1-.51-.89l-2.14-13.653h8.637a26.853 26.853 0 0 0 .182 8.248c.794 2.722 2.478 5.071 4.76 6.642Z"
        fill="#000" style="mix-blend-mode:overlay" opacity=".25" />
    <path
        d="M129.172 4H86.374c-2.115 0-3.83 1.782-3.83 3.98v33.082c0 2.198 1.715 3.98 3.83 3.98h42.798c2.115 0 3.829-1.782 3.829-3.98V7.979c0-2.197-1.714-3.979-3.829-3.979Z"
        fill="#4CBB17" />
    <path
        d="m98.545 15 1.578 17.834L107.545 35l7.468-2.165L116.545 15h-18Zm13.3 14.722-4.293 1.204h-.007l-4.297-1.204-.297-3.167h2.108l.15 1.526 2.335.639 2.34-.64.245-3.05h-7.27l-.187-2.006h7.64l.174-2.006h-8.017l-.176-2.006h10.506l-.954 10.71Z"
        fill="#fff" />
    <path
        d="M284.172 0h-42.798c-2.115 0-3.829 1.782-3.829 3.98v33.082c0 2.198 1.714 3.98 3.829 3.98h42.798c2.115 0 3.829-1.782 3.829-3.98V3.979c0-2.197-1.714-3.979-3.829-3.979Z"
        fill="#7702FF" />
    <path
        d="m273.867 14.805.061-.041c-.122-.223-.305-.427-.487-.528l-9.811-5.647c-.163-.102-.386-.142-.63-.142s-.467.06-.63.142l-9.75 5.667c-.345.203-.589.711-.589 1.097v11.314c0 .223.041.467.183.69l-.041.021c.102.163.244.305.386.386l9.791 5.667c.162.102.386.142.63.142.243 0 .467-.06.629-.142l9.75-5.667c.346-.203.589-.711.589-1.097V15.333a.99.99 0 0 0-.081-.528ZM263 25.977a4.98 4.98 0 0 0 4.327-2.52l2.62 1.544A8.024 8.024 0 0 1 263 29.023 8.027 8.027 0 0 1 254.977 21 8.027 8.027 0 0 1 263 12.976c2.986 0 5.586 1.646 6.967 4.063l-2.64 1.523A4.958 4.958 0 0 0 263 16.023 4.985 4.985 0 0 0 258.023 21 4.985 4.985 0 0 0 263 25.977Z"
        fill="#fff" />
    <path
        d="M289.522 226.208a121.535 121.535 0 0 1-7.926 18.471c-9.932 18.86-21.476 30.868-21.908 48.452a109.325 109.325 0 0 1-.7-35.446c1.612-10.612 5.249-21.942 12.705-31.477 20.747-26.509 17.676-50.625 17.676-50.625s10.392 19.777.153 50.625Z"
        fill="#169799" />
    <path
        d="M265.081 272.496c-.25-2.154-.25-4.33 0-6.483a42.76 42.76 0 0 1 1.103-6.343 61.814 61.814 0 0 1 4.414-11.969c.902-1.925 1.967-3.76 3.013-5.605l3.34-5.356a74.815 74.815 0 0 0 5.431-11.369 111.548 111.548 0 0 0 3.839-12.068 139.674 139.674 0 0 0 2.677-12.437 119.431 119.431 0 0 0 1.468-12.657c.138-2.121.17-4.248.096-6.373a29.043 29.043 0 0 0-.288-3.172 10.44 10.44 0 0 0-.825-3.061c.443.963.738 1.993.873 3.051.174 1.05.286 2.109.336 3.172.106 2.13.106 4.263 0 6.393a112.698 112.698 0 0 1-1.315 12.706 134.54 134.54 0 0 1-2.562 12.507 114.08 114.08 0 0 1-3.742 12.128 76.748 76.748 0 0 1-5.374 11.539l-3.339 5.416c-1.027 1.825-2.083 3.64-2.956 5.545a60.159 60.159 0 0 0-4.318 11.829 44.097 44.097 0 0 0-1.094 6.213c-.24 2.074-.24 4.17 0 6.244a.418.418 0 0 1-.077.301.392.392 0 0 1-.259.158.382.382 0 0 1-.279-.066.41.41 0 0 1-.162-.243Z"
        fill="#000" style="mix-blend-mode:overlay" opacity=".25" />
    <path
        d="M281.596 244.679c-9.932 18.86-21.476 30.868-21.908 48.452a109.325 109.325 0 0 1-.7-35.446c6.439-2.733 15.497-7.191 22.608-13.006Z"
        fill="#000" style="mix-blend-mode:overlay" opacity=".25" />
    <path
        d="M265.457 311.761s-7.255-12.895 9.912-28.803c17.168-15.908 30.612-36.952 27.992-53.977-16.419 19.827-60.09 47.953-47.779 82.78h9.875Z"
        fill="#20C3C5" />
    <path
        d="M303.359 228.981a58.257 58.257 0 0 1-6.199 10.542 90.299 90.299 0 0 1-7.811 9.315 119.363 119.363 0 0 1-8.876 8.248 59.898 59.898 0 0 0-8.185 8.897 67.738 67.738 0 0 0-10.978 21.672 48.5 48.5 0 0 0-1.996 12.058 28.732 28.732 0 0 0 1.919 11.969.422.422 0 0 1-.002.305.402.402 0 0 1-.206.219.377.377 0 0 1-.293.01.403.403 0 0 1-.219-.205 29.423 29.423 0 0 1-1.919-12.268 49.629 49.629 0 0 1 2.198-12.277 68.496 68.496 0 0 1 11.236-21.752 59.948 59.948 0 0 1 8.301-8.867 117.368 117.368 0 0 0 8.924-8.158 88.939 88.939 0 0 0 7.879-9.236 58.393 58.393 0 0 0 6.227-10.472Z"
        fill="#000" style="mix-blend-mode:overlay" opacity=".25" />
    <path d="M19.03 218.359s-8.963-8.487-13.722-29.701c27.435 24.176 34.152 45.699 34.152 45.699l-20.43-15.998Z"
        fill="#169799" />
    <path
        d="M5.308 188.658a533.47 533.47 0 0 1 11.179 17.224 321.73 321.73 0 0 1 5.326 8.797 91.242 91.242 0 0 1 4.798 9.166.423.423 0 0 1-.072.45.395.395 0 0 1-.275.13.396.396 0 0 1-.283-.111.412.412 0 0 1-.09-.13 94.386 94.386 0 0 0-4.577-9.176 338.15 338.15 0 0 0-5.144-8.896 602.687 602.687 0 0 0-10.862-17.454Z"
        fill="#000" style="mix-blend-mode:overlay" opacity=".25" />
    <path
        d="M38.903 230.287c-4.932-4.617-12.235-9.205-19.192-14.132-9.24-6.553-17.858-13.754-19.45-22.51-3.628 31.735 31.877 46.017 31.877 46.017l.077.11 12.897 19.548s5.268-18.271-6.209-29.033Z"
        fill="#20C3C5" />
    <path
        d="M.26 193.645c.107 3.537.94 7.009 2.447 10.183a31.363 31.363 0 0 0 5.93 8.497 50.486 50.486 0 0 0 8.042 6.413c2.879 1.925 5.758 3.78 8.53 5.775 5.605 3.989 10.97 8.567 14.721 14.561 3.73 6.034 5.67 13.075 5.575 20.246a.415.415 0 0 1-.115.289.385.385 0 0 1-.556 0 .415.415 0 0 1-.115-.289c.157-7.042-1.678-13.978-5.278-19.947-3.637-5.924-8.905-10.562-14.452-14.551-2.783-1.995-5.652-3.9-8.473-5.855a50.056 50.056 0 0 1-8.013-6.532 31.69 31.69 0 0 1-5.844-8.607A25.551 25.551 0 0 1 .26 193.645Z"
        fill="#000" style="mix-blend-mode:overlay" opacity=".25" />
    <path
        d="M291.701 325.914H53.134a6.685 6.685 0 0 1-4.817-2.074 7.227 7.227 0 0 1-1.996-5.008c0-.93.177-1.85.519-2.709.342-.86.844-1.64 1.477-2.298a6.813 6.813 0 0 1 2.21-1.535 6.587 6.587 0 0 1 2.608-.539H291.7c.895 0 1.781.183 2.607.539a6.8 6.8 0 0 1 2.21 1.535 7.093 7.093 0 0 1 1.477 2.298c.343.859.519 1.779.519 2.709 0 1.878-.718 3.68-1.996 5.008a6.682 6.682 0 0 1-4.817 2.074Z"
        fill="#EAF9F8" />
</svg>